<svg width="14" height="14" viewBox="0 0 14 14" fill="none" xmlns="http://www.w3.org/2000/svg">
<g id="Arrow - Left 3">
<g id="Iconly/Light/Video">
<g id="Video">
<path id="Stroke-1" fill-rule="evenodd" clip-rule="evenodd" d="M9.50857 9.06532C9.55576 10.134 8.69324 11.0377 7.58225 11.0832C7.50042 11.0866 3.51099 11.0786 3.51099 11.0786C2.40537 11.1625 1.43773 10.368 1.35052 9.30332C1.34395 9.22398 1.34574 4.94341 1.34574 4.94341C1.29676 3.87356 2.15808 2.96755 3.26967 2.9204C3.3527 2.91638 7.33675 2.92385 7.33675 2.92385C8.44775 2.84107 9.41838 3.64131 9.50439 4.71116C9.51042 4.7882 9.50857 9.06532 9.50857 9.06532Z" stroke="#667085" stroke-width="0.875" stroke-linecap="round" stroke-linejoin="round"/>
<path id="Stroke-3" d="M9.50781 5.82222L11.4287 4.25014C11.9047 3.86047 12.6187 4.19997 12.6181 4.81422L12.6111 9.10114C12.6106 9.71539 11.896 10.052 11.4211 9.66231L9.50781 8.09022" stroke="#667085" stroke-width="0.875" stroke-linecap="round" stroke-linejoin="round"/>
</g>
</g>
</g>
</svg>
