<svg width="20" height="20" viewBox="0 0 20 20" fill="none" xmlns="http://www.w3.org/2000/svg">
<g id="Filter 1">
<g id="Iconly/Light/Filter">
<g id="Filter">
<path id="Stroke-1" d="M8.60997 13.8281H3.35938" stroke="#667085" stroke-width="1.25" stroke-linecap="round" stroke-linejoin="round"/>
<path id="Stroke-3" d="M10.9531 5.75H16.2037" stroke="#667085" stroke-width="1.25" stroke-linecap="round" stroke-linejoin="round"/>
<path id="Stroke-5" fill-rule="evenodd" clip-rule="evenodd" d="M7.27451 5.70521C7.27451 4.6255 6.39271 3.75 5.30522 3.75C4.21774 3.75 3.33594 4.6255 3.33594 5.70521C3.33594 6.78492 4.21774 7.66042 5.30522 7.66042C6.39271 7.66042 7.27451 6.78492 7.27451 5.70521Z" stroke="#667085" stroke-width="1.25" stroke-linecap="round" stroke-linejoin="round"/>
<path id="Stroke-7" fill-rule="evenodd" clip-rule="evenodd" d="M16.6729 13.7951C16.6729 12.7153 15.7918 11.8398 14.7043 11.8398C13.6162 11.8398 12.7344 12.7153 12.7344 13.7951C12.7344 14.8748 13.6162 15.7503 14.7043 15.7503C15.7918 15.7503 16.6729 14.8748 16.6729 13.7951Z" stroke="#667085" stroke-width="1.25" stroke-linecap="round" stroke-linejoin="round"/>
</g>
</g>
</g>
</svg>
