<svg width="18" height="18" viewBox="0 0 18 18" fill="none" xmlns="http://www.w3.org/2000/svg">
<g id="Document pdf">
<path id="Vector" d="M14.8723 9.7137V6.87055C14.8723 6.46266 14.7145 6.07063 14.4327 5.77679L11.5125 2.73496C11.2149 2.42527 10.8032 2.25002 10.3734 2.25002H6.02104C4.4499 2.24398 3.16201 3.49561 3.125 5.06675V9.7137" stroke="#667085" stroke-width="1.125" stroke-linecap="round" stroke-linejoin="round"/>
<path id="Vector_2" d="M10.75 2.29688V4.52443C10.7493 5.61214 11.6292 6.49441 12.717 6.49667H14.8267" stroke="#667085" stroke-width="1.125" stroke-linecap="round" stroke-linejoin="round"/>
<path id="Vector_3" d="M3.3125 14.6029H4.36018C5.00073 14.6029 5.52041 14.0832 5.52041 13.4427C5.52041 12.8029 5.00073 12.2832 4.36018 12.2832H3.3125V15.7442" stroke="#667085" stroke-width="1.125" stroke-linecap="round" stroke-linejoin="round"/>
<path id="Vector_4" d="M14.8715 12.2812H12.9922V15.7506M14.5826 14.3053H12.9926" stroke="#667085" stroke-width="1.125" stroke-linecap="round" stroke-linejoin="round"/>
<path id="Vector_5" fill-rule="evenodd" clip-rule="evenodd" d="M8.74215 15.7506C9.2022 15.7506 9.64335 15.5678 9.96892 15.2422C10.2944 14.9174 10.4773 14.4764 10.4773 14.0163C10.4773 13.5556 10.2944 13.1144 9.96892 12.7896C9.64335 12.464 9.2022 12.2812 8.74215 12.2812H7.875V15.7506H8.74215Z" stroke="#667085" stroke-width="1.125" stroke-linecap="round" stroke-linejoin="round"/>
</g>
</svg>
