<svg width="20" height="20" viewBox="0 0 20 20" fill="none" xmlns="http://www.w3.org/2000/svg">
<g id="printer 2">
<path id="Vector" d="M6.17541 14.6925H5.27541C3.74541 14.6925 2.5 13.4552 2.5 11.9252V8.57982C2.5 7.05709 3.74541 5.8125 5.27541 5.8125H14.7327C16.2627 5.8125 17.5 7.05709 17.5 8.57982V11.9252C17.5 13.4552 16.2627 14.6925 14.7327 14.6925H13.8554" stroke="#667085" stroke-width="1.25" stroke-linecap="round" stroke-linejoin="round"/>
<path id="Vector_2" d="M6.17969 12.3398V15.4818C6.17969 16.4393 6.95563 17.2153 7.9132 17.2153H12.0921C13.0489 17.2153 13.8248 16.4393 13.8248 15.4818V12.3398" stroke="#667085" stroke-width="1.25" stroke-linecap="round" stroke-linejoin="round"/>
<path id="Vector_3" d="M14.5516 12.3398H5.44531" stroke="#667085" stroke-width="1.25" stroke-linecap="round" stroke-linejoin="round"/>
<path id="Vector_4" d="M14.7199 8.79297H12.9531" stroke="#667085" stroke-width="1.25" stroke-linecap="round" stroke-linejoin="round"/>
<path id="Vector_5" d="M6.17969 5.82374V4.51672C6.17969 3.55996 6.95564 2.7832 7.9132 2.7832H12.0921C13.0489 2.7832 13.8248 3.55996 13.8248 4.51672V5.82374" stroke="#667085" stroke-width="1.25" stroke-linecap="round" stroke-linejoin="round"/>
</g>
</svg>
