<svg width="20" height="22" viewBox="0 0 20 22" fill="none" xmlns="http://www.w3.org/2000/svg">
<g id="Iconly/Light/Setting">
<g id="Setting">
<path id="Path_33946" fill-rule="evenodd" clip-rule="evenodd" d="M18.8093 6.62288L18.1869 5.54279C17.6603 4.62887 16.4934 4.31359 15.5782 4.83798C15.1426 5.09461 14.6228 5.16742 14.1334 5.04035C13.644 4.91329 13.2253 4.59678 12.9695 4.16064C12.805 3.88342 12.7166 3.56766 12.7132 3.24531C12.7281 2.72849 12.5331 2.22767 12.1727 1.85694C11.8123 1.4862 11.3172 1.27713 10.8002 1.27734H9.54618C9.03965 1.27734 8.554 1.47918 8.19669 1.83821C7.83937 2.19724 7.63986 2.68386 7.6423 3.19039C7.62728 4.23619 6.77517 5.07608 5.72925 5.07597C5.4069 5.07262 5.09114 4.98421 4.81392 4.81968C3.89875 4.29528 2.7318 4.61056 2.20522 5.52448L1.53703 6.62288C1.0111 7.53566 1.32209 8.70187 2.23268 9.23158C2.82459 9.57331 3.18922 10.2049 3.18922 10.8883C3.18922 11.5718 2.82459 12.2033 2.23268 12.5451C1.32324 13.0712 1.01191 14.2346 1.53703 15.1446L2.16861 16.2339C2.41533 16.6791 2.82929 17.0076 3.31888 17.1467C3.80847 17.2859 4.33333 17.2242 4.77731 16.9753C5.21377 16.7206 5.73387 16.6508 6.22203 16.7815C6.71018 16.9121 7.12592 17.2323 7.37685 17.6709C7.54138 17.9482 7.62979 18.2639 7.63314 18.5863C7.63314 19.6428 8.48964 20.4993 9.54618 20.4993H10.8002C11.8532 20.4993 12.7082 19.6484 12.7132 18.5954C12.7108 18.0873 12.9115 17.5993 13.2708 17.24C13.6301 16.8807 14.1182 16.6799 14.6263 16.6824C14.9479 16.691 15.2623 16.779 15.5416 16.9387C16.4544 17.4646 17.6206 17.1536 18.1503 16.243L18.8093 15.1446C19.0644 14.7068 19.1345 14.1853 19.0039 13.6956C18.8733 13.206 18.5529 12.7886 18.1137 12.5359C17.6744 12.2832 17.3541 11.8658 17.2235 11.3762C17.0929 10.8866 17.1629 10.3651 17.418 9.92723C17.5839 9.6376 17.8241 9.39747 18.1137 9.23158C19.0188 8.70216 19.3291 7.54276 18.8093 6.63204V6.62288Z" stroke="#667085" stroke-width="1.5" stroke-linecap="round" stroke-linejoin="round"/>
<path id="Ellipse_737" d="M10.1752 13.5243C11.6311 13.5243 12.8114 12.344 12.8114 10.8881C12.8114 9.4322 11.6311 8.25195 10.1752 8.25195C8.71931 8.25195 7.53906 9.4322 7.53906 10.8881C7.53906 12.344 8.71931 13.5243 10.1752 13.5243Z" stroke="#667085" stroke-width="1.5" stroke-linecap="round" stroke-linejoin="round"/>
</g>
</g>
</svg>
